<svg width="277" height="603" viewBox="0 0 277 603" fill="none" xmlns="http://www.w3.org/2000/svg">
<g filter="url(#filter0_f_543_652)">
<path d="M20.9646 111.008C21.2749 109.415 21.5806 107.685 21.8897 105.866C21.8322 95.8093 21.6142 85.6096 21.9026 75.6093C22.1517 66.9691 26.9675 69.8251 26.9675 58.3885C26.9675 24.8157 32.9885 17.0584 49.666 17.0584C77.2212 17.0584 105.457 14.9674 131.268 35.81C138.459 41.6164 145.416 47.7622 152.841 52.2655C157.713 55.2205 161.402 63.8302 166.16 67.1902C173.917 72.6681 183.371 78.434 189.89 89.386C198.624 104.059 210.295 112.44 217.841 129.759C236.787 173.241 259.066 216.807 259.861 277.667C260.331 313.581 259.967 351.854 252.921 385.394C245.284 421.745 232.185 450.96 219.436 480.108C208.492 505.127 198.098 535.13 184.919 555.497C174.796 571.142 155.481 576.26 143.368 581.329C116.542 592.554 89.0649 583.098 65.1422 557.794C40.3303 531.548 27.1362 461.201 15.9935 413.521C8.26587 380.454 -0.739329 349.483 0.0482512 311.727C0.757715 277.715 3.63013 241.874 5.95736 208.21C8.22145 175.459 15.0134 141.555 20.9646 111.008Z" fill="#F28F8F"/>
<path d="M28.6558 75.6093C24.8141 84.4262 22.9858 100.633 20.9646 111.008C15.0134 141.555 8.22145 175.459 5.95736 208.21C3.63013 241.874 0.757715 277.715 0.0482512 311.726C-0.739329 349.483 8.26587 380.454 15.9935 413.521C27.1362 461.201 40.3303 531.548 65.1422 557.793C89.0649 583.098 116.542 592.554 143.368 581.329C155.481 576.26 174.796 571.142 184.919 555.497C198.098 535.13 208.492 505.127 219.436 480.108C232.185 450.96 245.284 421.745 252.921 385.394C259.967 351.854 260.331 313.581 259.861 277.667C259.066 216.807 236.787 173.241 217.841 129.759C210.295 112.44 198.624 104.059 189.89 89.386C183.371 78.434 173.917 72.6681 166.16 67.1902C161.402 63.8302 157.713 55.2205 152.841 52.2655C145.416 47.7622 138.459 41.6164 131.268 35.81C105.457 14.9674 77.2212 17.0584 49.666 17.0584C32.9885 17.0584 26.9675 24.8157 26.9675 58.3885C26.9675 69.8251 22.1517 66.9691 21.9026 75.6093C21.5741 86.9998 21.9026 98.6491 21.9026 110.051" stroke="#F28F8F" stroke-width="3" stroke-linecap="round"/>
</g>
<defs>
<filter id="filter0_f_543_652" x="-16.5" y="0.496948" width="293" height="602.007" filterUnits="userSpaceOnUse" color-interpolation-filters="sRGB">
<feFlood flood-opacity="0" result="BackgroundImageFix"/>
<feBlend mode="normal" in="SourceGraphic" in2="BackgroundImageFix" result="shape"/>
<feGaussianBlur stdDeviation="7.5" result="effect1_foregroundBlur_543_652"/>
</filter>
</defs>
</svg>
