<svg width="274" height="318" viewBox="0 0 274 318" fill="none" xmlns="http://www.w3.org/2000/svg">
<g filter="url(#filter0_f_543_653)">
<path d="M112.779 30.2149C139.835 10.6498 172.418 17.1814 202.739 22.3464C217.839 18.843 233.025 19.2525 248.506 19.2525C257.541 19.2525 258.321 24.1293 259.913 43.0674C262.217 70.4714 269 93.7005 269 122.072C269 165.647 251.815 183.755 235.552 209.772C226.888 223.631 218.391 241.587 208.291 251.353C194.231 264.946 178.725 273.42 164.015 283.862C152.091 292.328 140.203 302.239 127.28 300.873C106.43 298.669 78.9106 300.851 60.1903 279.704C47.5599 265.436 32.47 245.57 23.262 223.38C-0.361694 166.451 49.0806 106.047 68.5041 81.2468C82.9598 62.7892 96.4653 42.0123 112.779 30.2149Z" fill="#F8D629"/>
<path d="M232.458 26.0567C195.117 24.5966 148.996 4.02505 112.779 30.2149C96.4653 42.0123 82.9598 62.7892 68.5041 81.2468C49.0806 106.047 -0.361694 166.451 23.262 223.38C32.47 245.57 47.5599 265.436 60.1904 279.704C78.9106 300.851 106.43 298.669 127.28 300.873C140.203 302.239 152.091 292.328 164.015 283.862C178.724 273.42 194.231 264.946 208.291 251.353C218.391 241.587 226.888 223.631 235.552 209.772C251.815 183.755 269 165.647 269 122.072C269 93.7005 262.217 70.4714 259.913 43.0674C258.321 24.1293 257.541 19.2525 248.506 19.2525C228.904 19.2525 209.776 18.5961 190.696 26.0567" stroke="#F28F8F" stroke-width="3" stroke-linecap="round"/>
</g>
<defs>
<filter id="filter0_f_543_653" x="0.499023" y="0.499634" width="285.001" height="317" filterUnits="userSpaceOnUse" color-interpolation-filters="sRGB">
<feFlood flood-opacity="0" result="BackgroundImageFix"/>
<feBlend mode="normal" in="SourceGraphic" in2="BackgroundImageFix" result="shape"/>
<feGaussianBlur stdDeviation="7.5" result="effect1_foregroundBlur_543_653"/>
</filter>
</defs>
</svg>
