<svg width="305" height="330" viewBox="0 0 305 330" fill="none" xmlns="http://www.w3.org/2000/svg">
<g filter="url(#filter0_f_543_651)">
<path d="M140.744 37.3239C147.519 33.2751 154.714 31.0695 161.983 29.0329C165.446 21.9455 179.422 12.6738 186.731 19.7863C195.806 28.6164 207.264 36.2796 216.848 38.1468C226.329 39.9939 235.901 42.0678 245.912 50.339C265.561 66.5726 278.996 108.47 284.33 138.934C298.161 217.935 268.455 247.549 235.888 275.796C203.385 303.989 157.296 322.374 113.93 313.611C98.0196 310.395 81.6289 300.835 65.6412 296.54C56.8518 294.178 51.7971 288.769 44.0148 277.756C30.9021 259.198 18.7036 219.31 16.8497 195.401C14.2917 162.412 27.2493 157.819 38.3972 139.535C54.6369 112.9 76.1325 95.0022 96.209 75.6243C110.469 61.8608 124.663 46.9343 140.744 37.3239Z" fill="#4D8EAF"/>
<path d="M177.798 24.2248C165.381 28.8387 152.438 30.336 140.744 37.3239C124.663 46.9343 110.469 61.8608 96.209 75.6243C76.1325 95.0022 54.6369 112.9 38.3972 139.535C27.2493 157.819 14.2917 162.412 16.8497 195.401C18.7036 219.31 30.9021 259.198 44.0148 277.756C51.7971 288.769 56.8518 294.178 65.6412 296.54C81.6289 300.835 98.0196 310.395 113.93 313.611C157.296 322.374 203.385 303.989 235.888 275.797C268.455 247.549 298.161 217.935 284.33 138.934C278.996 108.47 265.561 66.5726 245.912 50.339C235.901 42.0678 226.329 39.9939 216.848 38.1468C207.264 36.2796 195.806 28.6164 186.731 19.7863C179.306 12.5605 164.999 22.245 161.826 29.3698" stroke="#A58167" stroke-width="3" stroke-linecap="round"/>
</g>
<defs>
<filter id="filter0_f_543_651" x="0.0966797" y="0.663696" width="304.14" height="331.718" filterUnits="userSpaceOnUse" color-interpolation-filters="sRGB">
<feFlood flood-opacity="0" result="BackgroundImageFix"/>
<feBlend mode="normal" in="SourceGraphic" in2="BackgroundImageFix" result="shape"/>
<feGaussianBlur stdDeviation="7.5" result="effect1_foregroundBlur_543_651"/>
</filter>
</defs>
</svg>
