<svg width="268" height="603" viewBox="0 0 268 603" fill="none" xmlns="http://www.w3.org/2000/svg">
<g filter="url(#filter0_f_543_584)">
<path d="M-40.4393 111.008C-40.061 109.415 -39.6883 107.685 -39.3114 105.866C-39.3815 95.8092 -39.6473 85.6095 -39.2957 75.6093C-38.9919 66.969 -33.1204 69.8251 -33.1204 58.3884C-33.1204 24.8156 -25.7794 17.0583 -5.44567 17.0583C28.1504 17.0583 62.5761 14.9673 94.046 35.8099C102.813 41.6164 111.295 47.7622 120.348 52.2654C126.289 55.2204 130.786 63.8302 136.587 67.1902C146.045 72.6681 157.572 78.4339 165.52 89.386C176.169 104.059 190.398 112.44 199.599 129.759C222.698 173.241 249.861 216.807 250.831 277.667C251.403 313.581 250.959 351.854 242.369 385.393C233.058 421.745 217.087 450.96 201.543 480.108C188.2 505.127 175.527 535.13 159.459 555.497C147.117 571.142 123.567 576.26 108.798 581.329C76.0913 592.554 42.5906 583.098 13.4234 557.793C-16.8281 531.548 -32.9147 461.201 -46.5003 413.521C-55.922 380.454 -66.9014 349.483 -65.9412 311.726C-65.0762 277.715 -61.574 241.874 -58.7366 208.21C-55.9762 175.459 -47.6952 141.555 -40.4393 111.008Z" fill="#F8D629" fill-opacity="0.82"/>
<path d="M-31.0619 75.6093C-35.7459 84.4262 -37.975 100.633 -40.4393 111.008C-47.6952 141.555 -55.9762 175.459 -58.7366 208.21C-61.574 241.874 -65.0762 277.715 -65.9412 311.726C-66.9014 349.483 -55.922 380.454 -46.5003 413.521C-32.9147 461.201 -16.8281 531.548 13.4234 557.793C42.5906 583.098 76.0913 592.554 108.798 581.329C123.567 576.26 147.117 571.142 159.459 555.497C175.527 535.13 188.2 505.127 201.543 480.108C217.087 450.96 233.058 421.745 242.369 385.393C250.959 351.854 251.403 313.581 250.831 277.667C249.861 216.807 222.698 173.241 199.599 129.759C190.398 112.44 176.169 104.059 165.52 89.386C157.572 78.4339 146.045 72.6681 136.587 67.1902C130.786 63.8302 126.289 55.2204 120.348 52.2654C111.295 47.7622 102.813 41.6164 94.046 35.8099C62.5761 14.9673 28.1504 17.0583 -5.44567 17.0583C-25.7794 17.0583 -33.1204 24.8156 -33.1204 58.3884C-33.1204 69.8251 -38.9919 66.969 -39.2957 75.6093C-39.6962 86.9997 -39.2957 98.649 -39.2957 110.051" stroke="#F8D629" stroke-width="3" stroke-linecap="round"/>
</g>
<defs>
<filter id="filter0_f_543_584" x="-82.5" y="0.497437" width="350" height="602.004" filterUnits="userSpaceOnUse" color-interpolation-filters="sRGB">
<feFlood flood-opacity="0" result="BackgroundImageFix"/>
<feBlend mode="normal" in="SourceGraphic" in2="BackgroundImageFix" result="shape"/>
<feGaussianBlur stdDeviation="7.5" result="effect1_foregroundBlur_543_584"/>
</filter>
</defs>
</svg>
