<svg width="35" height="35" viewBox="0 0 35 35" fill="none" xmlns="http://www.w3.org/2000/svg">
<path d="M20.6647 19.9937L22.7064 16.4645C22.8376 16.2458 22.7793 15.9687 22.5897 15.8083L20.4314 14.1166C20.4751 13.7958 20.5043 13.4604 20.5043 13.125C20.5043 12.7895 20.4751 12.4541 20.4314 12.1187L22.5897 10.427C22.7793 10.2666 22.8376 9.98954 22.7064 9.77079L20.6647 6.24163C20.5335 6.02288 20.271 5.93538 20.0376 6.02288L17.5001 7.04371C16.9751 6.63538 16.4064 6.29996 15.7793 6.03746L15.4001 3.33954C15.3757 3.2216 15.3118 3.11548 15.2191 3.03862C15.1263 2.96177 15.0102 2.91875 14.8897 2.91663H10.8064C10.5585 2.91663 10.3397 3.10621 10.296 3.35413L9.91681 6.05204C9.30431 6.31454 8.72098 6.64996 8.19598 7.05829L5.65848 6.03746C5.42515 5.94996 5.16265 6.03746 5.0314 6.25621L2.98973 9.78538C2.85848 10.0041 2.91681 10.2812 3.1064 10.4416L5.26473 12.1333C5.22098 12.4541 5.19181 12.7895 5.19181 13.125C5.19181 13.4604 5.22098 13.7958 5.26473 14.1312L3.1064 15.8229C2.91681 15.9833 2.85848 16.2604 2.98973 16.4791L5.0314 20.0083C5.16265 20.227 5.42515 20.3145 5.65848 20.227L8.19598 19.2062C8.72098 19.6145 9.28973 19.95 9.91681 20.2125L10.296 22.9104C10.3397 23.1437 10.5585 23.3333 10.8064 23.3333H14.8897C15.1376 23.3333 15.3564 23.1437 15.4001 22.8958L15.7793 20.1979C16.3918 19.9354 16.9751 19.6 17.5001 19.1916L20.0376 20.2125C20.271 20.3 20.5335 20.2125 20.6647 19.9937ZM12.8481 16.0416C11.2439 16.0416 9.9314 14.7291 9.9314 13.125C9.9314 11.5208 11.2439 10.2083 12.8481 10.2083C14.4522 10.2083 15.7647 11.5208 15.7647 13.125C15.7647 14.7291 14.4522 16.0416 12.8481 16.0416ZM31.9668 27.227L30.5668 26.1479C30.596 25.9437 30.6251 25.725 30.6251 25.5062C30.6251 25.2875 30.6106 25.0687 30.5668 24.8645L31.9522 23.7854C32.0689 23.6833 32.1126 23.5083 32.0251 23.3625L30.7126 21.102C30.6397 20.9562 30.4647 20.9125 30.3043 20.9562L28.6856 21.6125C28.3501 21.35 27.9856 21.1312 27.5772 20.9708L27.3293 19.25C27.3235 19.172 27.289 19.099 27.2324 19.0451C27.1758 18.9912 27.1012 18.9603 27.0231 18.9583H24.4126C24.2522 18.9583 24.1064 19.075 24.0918 19.2354L23.8439 20.9562C23.4501 21.1312 23.071 21.3354 22.7356 21.5979L21.1168 20.9416C21.0425 20.9137 20.9607 20.913 20.8859 20.9397C20.8111 20.9664 20.7483 21.0188 20.7085 21.0875L19.396 23.3479C19.3231 23.4937 19.3376 23.6687 19.4689 23.7708L20.8543 24.85C20.7942 25.2756 20.7942 25.7076 20.8543 26.1333L19.4689 27.2125C19.3522 27.3145 19.3085 27.4895 19.396 27.6354L20.7085 29.8958C20.7814 30.0416 20.9564 30.0854 21.1168 30.0416L22.7356 29.3854C23.071 29.6479 23.4356 29.8666 23.8439 30.027L24.0918 31.7479C24.121 31.9083 24.2522 32.025 24.4126 32.025H27.0231C27.1835 32.025 27.3293 31.9083 27.3439 31.7479L27.5918 30.027C27.9856 29.852 28.3647 29.6479 28.6856 29.3854L30.3189 30.0416C30.4647 30.1 30.6397 30.0416 30.7272 29.8958L32.0397 27.6354C32.1272 27.5041 32.0835 27.3291 31.9668 27.227ZM25.7106 27.4604C25.1882 27.4602 24.6874 27.2525 24.3181 26.883C23.9489 26.5135 23.7416 26.0125 23.7418 25.4902C23.742 24.9678 23.9497 24.467 24.3192 24.0977C24.6887 23.7285 25.1897 23.5212 25.712 23.5214C26.2344 23.5216 26.7352 23.7293 27.1044 24.0988C27.4737 24.4683 27.681 24.9693 27.6808 25.4916C27.6806 26.014 27.4729 26.5148 27.1034 26.884C26.7339 27.2533 26.2329 27.4606 25.7106 27.4604Z" fill="#4D8EAF"/>
</svg>
