<svg width="27" height="27" viewBox="0 0 27 27" fill="none" xmlns="http://www.w3.org/2000/svg">
<path d="M4.82739 18.3343C4.56469 21.4977 6.9509 24.0809 10.1252 24.0809H15.3683C18.9367 24.0809 21.3886 21.2021 20.7975 17.6775C20.1736 13.9778 16.6052 10.9458 12.8508 10.9458C8.77887 10.9458 5.16671 14.2734 4.82739 18.3343Z" stroke="#141415" stroke-width="1.64189" stroke-linecap="round" stroke-linejoin="round"/>
<path d="M11.4601 8.20929C12.9714 8.20929 14.1966 6.98413 14.1966 5.47281C14.1966 3.96149 12.9714 2.73633 11.4601 2.73633C9.9488 2.73633 8.72363 3.96149 8.72363 5.47281C8.72363 6.98413 9.9488 8.20929 11.4601 8.20929Z" stroke="#141415" stroke-width="1.64189" stroke-linecap="round" stroke-linejoin="round"/>
<path d="M18.9363 9.5229C20.1453 9.5229 21.1254 8.54277 21.1254 7.33372C21.1254 6.12466 20.1453 5.14453 18.9363 5.14453C17.7272 5.14453 16.7471 6.12466 16.7471 7.33372C16.7471 8.54277 17.7272 9.5229 18.9363 9.5229Z" stroke="#141415" stroke-width="1.64189" stroke-linecap="round" stroke-linejoin="round"/>
<path d="M22.9866 13.9015C23.8934 13.9015 24.6285 13.1664 24.6285 12.2596C24.6285 11.3528 23.8934 10.6177 22.9866 10.6177C22.0798 10.6177 21.3447 11.3528 21.3447 12.2596C21.3447 13.1664 22.0798 13.9015 22.9866 13.9015Z" stroke="#141415" stroke-width="1.64189" stroke-linecap="round" stroke-linejoin="round"/>
<path d="M4.34544 11.7119C5.55449 11.7119 6.53462 10.7317 6.53462 9.52268C6.53462 8.31363 5.55449 7.3335 4.34544 7.3335C3.13638 7.3335 2.15625 8.31363 2.15625 9.52268C2.15625 10.7317 3.13638 11.7119 4.34544 11.7119Z" stroke="#141415" stroke-width="1.64189" stroke-linecap="round" stroke-linejoin="round"/>
</svg>
